<?xml version="1.0" encoding="UTF-8" standalone="no"?>
<svg
   xmlns:dc="http://purl.org/dc/elements/1.1/"
   xmlns:cc="http://creativecommons.org/ns#"
   xmlns:rdf="http://www.w3.org/1999/02/22-rdf-syntax-ns#"
   xmlns:svg="http://www.w3.org/2000/svg"
   xmlns="http://www.w3.org/2000/svg"
   xmlns:sodipodi="http://sodipodi.sourceforge.net/DTD/sodipodi-0.dtd"
   xmlns:inkscape="http://www.inkscape.org/namespaces/inkscape"
   enable-background="new 0 0 512 512"
   id="Layer_1"
   version="1.1"
   viewBox="0 0 512 512"
   xml:space="preserve"
   inkscape:version="0.91 r13725"
   sodipodi:docname="arrow-down.svg"
   inkscape:export-filename="Z:\works\Xamarin\Pizza\Assets\arrow-down.png"
   inkscape:export-xdpi="3.8671875"
   inkscape:export-ydpi="3.8671875"><metadata
     id="metadata13"><rdf:RDF><cc:Work
         rdf:about=""><dc:format>image/svg+xml</dc:format><dc:type
           rdf:resource="http://purl.org/dc/dcmitype/StillImage" /></cc:Work></rdf:RDF></metadata><defs
     id="defs11" /><sodipodi:namedview
     pagecolor="#ffffff"
     bordercolor="#666666"
     borderopacity="1"
     objecttolerance="10"
     gridtolerance="10"
     guidetolerance="10"
     inkscape:pageopacity="0"
     inkscape:pageshadow="2"
     inkscape:window-width="1920"
     inkscape:window-height="1147"
     id="namedview9"
     showgrid="false"
     inkscape:zoom="0.4609375"
     inkscape:cx="256"
     inkscape:cy="256"
     inkscape:window-x="-8"
     inkscape:window-y="-8"
     inkscape:window-maximized="1"
     inkscape:current-layer="Layer_1" /><g
     id="g3"><path
       d="M256,393.6c-2.8,0-5.5-1.1-7.6-3.2L3,136.3c-4-4.2-3.9-10.9,0.3-14.9c4.2-4,10.9-3.9,14.9,0.3l245.5,254   c4,4.2,3.9,10.9-0.3,14.9C261.3,392.6,258.6,393.6,256,393.6z"
       fill="#6A6E7C"
       id="path5" /><path
       d="M256,393.6c-2.6,0-5.3-1-7.3-3c-4.2-4-4.3-10.7-0.3-14.9l245.5-254c4-4.2,10.7-4.3,14.9-0.3   c4.2,4,4.3,10.7,0.3,14.9l-245.5,254C261.5,392.5,258.8,393.6,256,393.6z"
       fill="#6A6E7C"
       id="path7" /></g></svg>