<?xml version="1.0" encoding="UTF-8" standalone="no"?>
<svg
   xmlns:dc="http://purl.org/dc/elements/1.1/"
   xmlns:cc="http://creativecommons.org/ns#"
   xmlns:rdf="http://www.w3.org/1999/02/22-rdf-syntax-ns#"
   xmlns:svg="http://www.w3.org/2000/svg"
   xmlns="http://www.w3.org/2000/svg"
   xmlns:sodipodi="http://sodipodi.sourceforge.net/DTD/sodipodi-0.dtd"
   xmlns:inkscape="http://www.inkscape.org/namespaces/inkscape"
   enable-background="new -0.881 -1.086 141.732 141.732"
   height="141.732px"
   id="Livello_1"
   version="1.1"
   viewBox="-0.881 -1.086 141.732 141.732"
   width="141.732px"
   xml:space="preserve"
   inkscape:version="0.91 r13725"
   sodipodi:docname="pizza-raw-icon.svg"
   inkscape:export-filename="Z:\works\Xamarin\Pizza\Assets\pizza-raw-icon@2x.png"
   inkscape:export-xdpi="650.24133"
   inkscape:export-ydpi="650.24133"><metadata
     id="metadata15"><rdf:RDF><cc:Work
         rdf:about=""><dc:format>image/svg+xml</dc:format><dc:type
           rdf:resource="http://purl.org/dc/dcmitype/StillImage" /></cc:Work></rdf:RDF></metadata><defs
     id="defs13" /><sodipodi:namedview
     pagecolor="#ffffff"
     bordercolor="#666666"
     borderopacity="1"
     objecttolerance="10"
     gridtolerance="10"
     guidetolerance="10"
     inkscape:pageopacity="0"
     inkscape:pageshadow="2"
     inkscape:window-width="1366"
     inkscape:window-height="715"
     id="namedview11"
     showgrid="false"
     inkscape:zoom="1.6651145"
     inkscape:cx="70.865997"
     inkscape:cy="70.865997"
     inkscape:window-x="-8"
     inkscape:window-y="-8"
     inkscape:window-maximized="1"
     inkscape:current-layer="Livello_1" /><rect
     style="fill:#95383b;fill-opacity:1;fill-rule:nonzero;stroke:#ff00ff;stroke-width:0.1;stroke-miterlimit:4;stroke-dasharray:none;stroke-opacity:1"
     id="rect4143"
     width="143.53368"
     height="142.33255"
     x="-0.88099998"
     y="-1.086" /><g
     id="Livello_52"
     style="fill:#e8c359;fill-opacity:1"
     transform="matrix(0.87090391,0,0,0.87090391,11.463556,10.209508)"><g
       id="g4"
       style="fill:#e8c359;fill-opacity:1"><path
         d="m 123.057,74.451 c 0,4.848 -3.929,8.772 -8.771,8.772 -4.846,0 -8.775,-3.928 -8.775,-8.772 0,-4.848 3.931,-8.773 8.775,-8.773 4.842,0 8.771,3.927 8.771,8.773 M 82.109,93.469 c 0,3.229 -2.619,5.85 -5.85,5.85 -3.231,0 -5.851,-2.619 -5.851,-5.85 0,-3.231 2.618,-5.849 5.851,-5.849 3.23,0 5.85,2.618 5.85,5.849 M 70.88,112.342 c 3.015,0 5.458,2.443 5.458,5.455 0,3.014 -2.442,5.457 -5.458,5.457 -3.016,0 -5.455,-2.443 -5.455,-5.457 0,-3.012 2.442,-5.455 5.455,-5.455 M 64.56,22.836 c 0,4.846 -3.929,8.771 -8.771,8.771 -4.846,0 -8.774,-3.928 -8.774,-8.771 0,-4.848 3.93,-8.775 8.774,-8.775 4.842,0 8.771,3.929 8.771,8.775 m -17.828,46.06 c 1.5,0 2.717,1.197 2.717,2.674 0,1.479 -1.217,2.679 -2.717,2.679 -1.502,0 -2.719,-1.197 -2.719,-2.679 0,-1.476 1.217,-2.674 2.719,-2.674 m -2.719,29.897 c 0,4.504 -3.65,8.151 -8.152,8.151 -4.504,0 -8.152,-3.647 -8.152,-8.151 0,-4.504 3.648,-8.154 8.152,-8.154 4.502,0 8.152,3.65 8.152,8.154 M 36.654,51.508 c 0,3.014 -2.441,5.457 -5.455,5.457 -3.014,0 -5.455,-2.443 -5.455,-5.457 0,-3.012 2.441,-5.455 5.455,-5.455 3.011,0 5.455,2.443 5.455,5.455 M 134.539,44.975 72.227,69.9 97.667,6.297 C 89.077,2.502 79.577,0.393 69.584,0.393 31.154,0.393 0,31.547 0,69.977 c 0,38.43 31.152,69.584 69.586,69.584 38.433,0 69.584,-31.154 69.584,-69.584 0,-8.813 -1.643,-17.243 -4.631,-25.002"
         id="path6"
         style="fill:#e8c359;fill-opacity:1"
         inkscape:connector-curvature="0" /><path
         d="m 116.705,22.918 c 0,3.164 -2.563,5.729 -5.729,5.729 -3.162,0 -5.729,-2.562 -5.729,-5.729 0,-3.167 2.564,-5.729 5.729,-5.729 3.165,0 5.729,2.565 5.729,5.729 m -12.507,20.053 c 0,2.084 -1.688,3.773 -3.771,3.773 -2.085,0 -3.773,-1.689 -3.773,-3.773 0,-2.084 1.688,-3.773 3.773,-3.773 2.083,0 3.771,1.689 3.771,3.773 m 35.773,-5.16 C 133.523,20.924 120.588,7.287 104.244,0 L 79.582,62.168 139.971,37.811 Z"
         id="path8"
         style="fill:#e8c359;fill-opacity:1"
         inkscape:connector-curvature="0" /></g></g><g
     id="Livello_1_1_" /></svg>